# xmcd
#
# Track frame offsets:
#	150
#	18874
#	39140
#	60347
#	76836
#	94071
#	112042
#	132530
#	166615
#
# Disc length: 2237 seconds
#
# Revision: 1
# Processed by: cddbd v1.5.1PL0 Copyright (c) Steve Scherf et al.
# Submitted via: audiograbber 1.81.02
#
DISCID=5e08bb09
DTITLE=Rebecca St. James - 8 Great Hits
DYEAR=2005
DGENRE=Pop
TTITLE0=God
TTITLE1=Pray
TTITLE2=Wait For Me
TTITLE3=Yes, I Believe In God
TTITLE4=Here I Am
TTITLE5=Reborn
TTITLE6=Go And Sin No More
TTITLE7=You're The Voice
TTITLE8=Daten-CD
EXTD=
EXTT0=
EXTT1=
EXTT2=
EXTT3=
EXTT4=
EXTT5=
EXTT6=
EXTT7=
EXTT8=
PLAYORDER=
